<svg id="Capa_1" enable-background="new 0 0 512 512" height="512" viewBox="0 0 512 512" width="512" xmlns="http://www.w3.org/2000/svg"><g><path d="m166.402 490.82 30.413-1.801c29.455-12.622 24.244-32.814 18.435-48.815l-40.403-110.785c-5.84-16.013-23.556-24.26-39.569-18.42l-30.413 11.092 15.22 92.682 46.316 76.051z" fill="#eceaec"/><path d="m221.3 456.792-6.051-16.592c5.811 16.003-2.434 33.693-18.434 39.528l-30.413 11.092-6.444 7.805 12.509 8.828 30.413-11.092c16.013-5.84 24.26-23.555 18.42-39.569z" fill="#dad8db"/><path d="m110.639 481.832 29.583 14.058 26.178-5.07-61.535-168.73-36.884 42.776 3.627 60.894 39.031 56.073z" fill="#a6aec4"/><path d="m166.4 490.82-55.761-8.988 6.065 16.633 55.762 8.988z" fill="#959db0"/><path d="m52.298 460.014 2.411 6.2c10.734 27.604 37.314 45.786 66.931 45.786l-6.896-18.909c-23.247-2.089-48.742-14.415-62.446-33.077z" fill="#3b434d"/><path d="m345.599 490.82-30.413-1.801c-29.455-12.622-24.244-32.814-18.435-48.815l40.403-110.785c5.84-16.013 23.556-24.26 39.569-18.42l30.413 11.092-15.22 92.682-46.316 76.051z" fill="#eceaec"/><path d="m290.7 456.792 6.051-16.592c-5.811 16.003 2.434 33.693 18.434 39.528l30.413 11.092 6.444 7.805-12.509 8.828-30.413-11.092c-16.013-5.84-24.26-23.555-18.42-39.569z" fill="#dad8db"/><path d="m401.361 481.832-29.583 14.058-26.178-5.07 61.535-168.73 36.884 42.776-3.627 60.894-39.031 56.073z" fill="#a6aec4"/><path d="m345.6 490.82 55.761-8.988-6.065 16.633-55.762 8.988z" fill="#959db0"/><path d="m255.993 0h.013c349.986 0 223.057 370.746 223.057 370.746 3.086 17.898 1.238 36.298-5.345 53.224l-14.017 36.044c-6.902 15.645-33.791 39.664-50.783 45.044l-11.664-11.967 57.641-158.05s15.034-49.202 13.34-107.555c0-71.439-27.689-198.779-212.237-198.779s-212.235 127.34-212.235 198.779c-1.694 58.354 13.34 107.555 13.34 107.555l57.641 158.05-11.664 11.967c-16.992-5.38-43.88-29.399-50.783-45.044l-14.016-36.044c-6.583-16.927-8.43-35.327-5.345-53.224 0 0-126.928-370.746 223.057-370.746h.013" fill="#434d59"/><g fill="#3b434d"><path d="m459.702 460.014-2.411 6.2c-10.735 27.604-37.314 45.786-66.931 45.786l6.896-18.909c23.247-2.089 48.742-14.415 62.446-33.077z"/><path d="m256 37.998c171.782 0 209.769 104.461 212.237 189.489 2.437-87.509-27.689-208.07-212.237-208.07s-214.674 120.561-212.237 208.07c2.468-85.028 40.455-189.489 212.237-189.489z"/></g></g></svg>